<svg width="18" height="18" viewBox="0 0 18 18" fill="none" xmlns="http://www.w3.org/2000/svg">
<path d="M15.6909 4.81078L14.5659 2.56078C14.5192 2.46733 14.4473 2.38875 14.3584 2.33386C14.2695 2.27896 14.167 2.24993 14.0625 2.25L3.9375 2.25C3.833 2.24993 3.73054 2.27896 3.64162 2.33386C3.5527 2.38875 3.48083 2.46733 3.43406 2.56078L2.30906 4.81078C2.27029 4.88903 2.25008 4.97517 2.25 5.0625L2.25 14.625C2.25 14.9234 2.36853 15.2095 2.5795 15.4205C2.79048 15.6315 3.07663 15.75 3.375 15.75L14.625 15.75C14.9234 15.75 15.2095 15.6315 15.4205 15.4205C15.6315 15.2095 15.75 14.9234 15.75 14.625L15.75 5.0625C15.7499 4.97517 15.7297 4.88903 15.6909 4.81078ZM4.28484 3.375L13.7152 3.375L14.2777 4.5L3.72234 4.5L4.28484 3.375ZM14.625 14.625L3.375 14.625L3.375 5.625L14.625 5.625L14.625 14.625ZM11.648 10.2895C11.7003 10.3418 11.7418 10.4038 11.7701 10.4721C11.7984 10.5404 11.8129 10.6136 11.8129 10.6875C11.8129 10.7614 11.7984 10.8346 11.7701 10.9029C11.7418 10.9712 11.7003 11.0332 11.648 11.0855L9.39797 13.3355C9.34573 13.3878 9.28369 13.4293 9.2154 13.4576C9.14712 13.4859 9.07392 13.5004 9 13.5004C8.92608 13.5004 8.85288 13.4859 8.7846 13.4576C8.71631 13.4293 8.65427 13.3878 8.60203 13.3355L6.35203 11.0855C6.24648 10.9799 6.18719 10.8368 6.18719 10.6875C6.18719 10.5382 6.24648 10.3951 6.35203 10.2895C6.45758 10.184 6.60073 10.1247 6.75 10.1247C6.89927 10.1247 7.04242 10.184 7.14797 10.2895L8.4375 11.5798L8.4375 7.3125C8.4375 7.16332 8.49676 7.02024 8.60225 6.91475C8.70774 6.80926 8.85082 6.75 9 6.75C9.14918 6.75 9.29226 6.80926 9.39775 6.91475C9.50324 7.02024 9.5625 7.16332 9.5625 7.3125L9.5625 11.5798L10.852 10.2895C10.9043 10.2372 10.9663 10.1957 11.0346 10.1674C11.1029 10.1391 11.1761 10.1246 11.25 10.1246C11.3239 10.1246 11.3971 10.1391 11.4654 10.1674C11.5337 10.1957 11.5957 10.2372 11.648 10.2895Z" fill="#565D6D"/>
</svg>
