<svg viewBox = "0 0 95.58 45.91" width="95.58" height="45.91" xmlns="http://www.w3.org/2000/svg"><g transform="matrix(1 0 0 1 47.78 22.96)" id="Elements"  ><path style="stroke: none; stroke-width: 1; stroke-dasharray: none; stroke-linecap: butt; stroke-dashoffset: 0; stroke-linejoin: miter; stroke-miterlimit: 4; fill: rgb(38,32,32); fill-rule: nonzero; opacity: 1;"  transform=" translate(-47.78, -22.96)" d="M 0 40.03 C 0.16 38.34 0.08 36.59 0.53 34.980000000000004 C 1.1800000000000002 32.68000000000001 1.97 30.340000000000003 3.12 28.260000000000005 C 10.38 15.22 21.03 5.64 35.32 1.69 C 49.9 -2.35 63.69 0.86 75.17 11.309999999999999 C 80.92 16.54 85.4 22.799999999999997 88.75 29.849999999999998 C 89.36 31.119999999999997 89.99 32.379999999999995 91.02 34.46 C 92.31 31.55 93.28999999999999 29.330000000000002 94.27 27.11 C 94.58999999999999 27.18 94.91 27.25 95.22 27.32 C 95.35 28.01 95.63 28.71 95.57 29.38 C 95.27 32.89 94.91 36.4 94.52 39.91 C 94.25999999999999 42.16 93.97999999999999 44.58 91.57 45.559999999999995 C 88.97 46.60999999999999 86.78999999999999 45.19 85.11 43.419999999999995 C 82.8 40.989999999999995 80.71 38.33 78.71 35.63999999999999 C 78.3 35.07999999999999 78.69 33.92999999999999 78.71 33.059999999999995 C 79.58 33.089999999999996 80.71 32.769999999999996 81.27999999999999 33.199999999999996 C 83.05999999999999 34.529999999999994 84.62999999999998 36.13999999999999 86.30999999999999 37.67999999999999 C 86.42999999999999 37.39999999999999 86.58999999999999 37.21999999999999 86.54999999999998 37.10999999999999 C 78.78 15.1 62.77 2.02 39.99 4.26 C 38.88 4.37 37.760000000000005 4.6 36.7 4.9399999999999995 C 21.39 9.83 10.09 19.39 3.17 33.95 C 2.25 35.88 1.89 38.080000000000005 1.26 40.160000000000004 C 0.8400000000000001 40.120000000000005 0.41000000000000003 40.080000000000005 -0.010000000000000009 40.03 Z" stroke-linecap="round" /></g></svg>