<svg width="18" height="18" viewBox="0 0 18 18" fill="none" xmlns="http://www.w3.org/2000/svg">
<path d="M16.0714 4.5V11.5714C16.0714 11.9124 15.936 12.2394 15.6949 12.4806C15.4537 12.7217 15.1267 12.8571 14.7857 12.8571H13.5L13.5 15.4286L9.64286 12.8571H9" stroke="#565D6D" stroke-width="1.54286" stroke-miterlimit="10" stroke-linecap="square"/>
<path d="M12.2144 2.57141L3.21443 2.57141C2.87343 2.57141 2.54641 2.70687 2.30529 2.94799C2.06417 3.18911 1.92871 3.51613 1.92871 3.85713L1.92871 8.99998C1.92871 9.34098 2.06417 9.668 2.30529 9.90912C2.54641 10.1502 2.87343 10.2857 3.21443 10.2857H4.50014L4.50014 13.5L9.00014 10.2857L12.2144 10.2857C12.5554 10.2857 12.8824 10.1502 13.1236 9.90912C13.3647 9.668 13.5001 9.34098 13.5001 8.99998L13.5001 3.85713C13.5001 3.51613 13.3647 3.18911 13.1236 2.94799C12.8824 2.70687 12.5554 2.57141 12.2144 2.57141Z" stroke="#565D6D" stroke-width="1.54286" stroke-miterlimit="10" stroke-linecap="square"/>
</svg>
