<svg width="243" height="40" viewBox="0 0 243 40" fill="none" xmlns="http://www.w3.org/2000/svg">
<path d="M43.233 25V14.8182H44.4659V19.3523H49.8949V14.8182H51.1278V25H49.8949V20.446H44.4659V25H43.233ZM56.5394 25.1591C55.85 25.1591 55.2451 24.995 54.7248 24.6669C54.2077 24.3388 53.8034 23.8797 53.5117 23.2898C53.2234 22.6998 53.0792 22.0104 53.0792 21.2216C53.0792 20.4261 53.2234 19.7318 53.5117 19.1385C53.8034 18.5452 54.2077 18.0845 54.7248 17.7564C55.2451 17.4283 55.85 17.2642 56.5394 17.2642C57.2288 17.2642 57.832 17.4283 58.3491 17.7564C58.8694 18.0845 59.2738 18.5452 59.5621 19.1385C59.8538 19.7318 59.9996 20.4261 59.9996 21.2216C59.9996 22.0104 59.8538 22.6998 59.5621 23.2898C59.2738 23.8797 58.8694 24.3388 58.3491 24.6669C57.832 24.995 57.2288 25.1591 56.5394 25.1591ZM56.5394 24.1051C57.0631 24.1051 57.494 23.9709 57.832 23.7024C58.1701 23.4339 58.4203 23.081 58.5827 22.6435C58.7451 22.206 58.8263 21.732 58.8263 21.2216C58.8263 20.7112 58.7451 20.2356 58.5827 19.7947C58.4203 19.3539 58.1701 18.9976 57.832 18.7259C57.494 18.4541 57.0631 18.3182 56.5394 18.3182C56.0157 18.3182 55.5849 18.4541 55.2468 18.7259C54.9087 18.9976 54.6585 19.3539 54.4961 19.7947C54.3337 20.2356 54.2525 20.7112 54.2525 21.2216C54.2525 21.732 54.3337 22.206 54.4961 22.6435C54.6585 23.081 54.9087 23.4339 55.2468 23.7024C55.5849 23.9709 56.0157 24.1051 56.5394 24.1051ZM63.261 25L60.9343 17.3636H62.1673L63.8178 23.2102H63.8974L65.5281 17.3636H66.7809L68.3917 23.1903H68.4712L70.1218 17.3636H71.3548L69.0281 25H67.8746L66.2042 19.1335H66.0849L64.4144 25H63.261ZM76.8434 25V17.3636H78.0167V25H76.8434ZM77.44 16.0909C77.2113 16.0909 77.0141 16.013 76.8484 15.8572C76.686 15.7015 76.6048 15.5142 76.6048 15.2955C76.6048 15.0767 76.686 14.8894 76.8484 14.7337C77.0141 14.5779 77.2113 14.5 77.44 14.5C77.6687 14.5 77.8642 14.5779 78.0266 14.7337C78.1924 14.8894 78.2752 15.0767 78.2752 15.2955C78.2752 15.5142 78.1924 15.7015 78.0266 15.8572C77.8642 16.013 77.6687 16.0909 77.44 16.0909ZM83.4867 17.3636V18.358H79.5293V17.3636H83.4867ZM80.6827 15.5341H81.856V22.8125C81.856 23.1439 81.9041 23.3925 82.0002 23.5582C82.0996 23.7206 82.2256 23.83 82.378 23.8864C82.5338 23.9394 82.6979 23.9659 82.8702 23.9659C82.9995 23.9659 83.1055 23.9593 83.1884 23.946C83.2712 23.9295 83.3375 23.9162 83.3873 23.9062L83.6259 24.9602C83.5463 24.9901 83.4353 25.0199 83.2928 25.0497C83.1503 25.0829 82.9696 25.0994 82.7509 25.0994C82.4194 25.0994 82.0946 25.0282 81.7765 24.8857C81.4616 24.7431 81.1998 24.526 80.9909 24.2344C80.7855 23.9427 80.6827 23.5748 80.6827 23.1307V15.5341ZM90.9192 25L88.5925 17.3636H89.8255L91.476 23.2102H91.5556L93.1863 17.3636H94.4391L96.0499 23.1903H96.1294L97.78 17.3636H99.013L96.6863 25H95.5328L93.8624 19.1335H93.7431L92.0726 25H90.9192ZM103.407 25.1591C102.717 25.1591 102.112 24.995 101.592 24.6669C101.075 24.3388 100.671 23.8797 100.379 23.2898C100.091 22.6998 99.9464 22.0104 99.9464 21.2216C99.9464 20.4261 100.091 19.7318 100.379 19.1385C100.671 18.5452 101.075 18.0845 101.592 17.7564C102.112 17.4283 102.717 17.2642 103.407 17.2642C104.096 17.2642 104.699 17.4283 105.216 17.7564C105.737 18.0845 106.141 18.5452 106.429 19.1385C106.721 19.7318 106.867 20.4261 106.867 21.2216C106.867 22.0104 106.721 22.6998 106.429 23.2898C106.141 23.8797 105.737 24.3388 105.216 24.6669C104.699 24.995 104.096 25.1591 103.407 25.1591ZM103.407 24.1051C103.93 24.1051 104.361 23.9709 104.699 23.7024C105.037 23.4339 105.288 23.081 105.45 22.6435C105.612 22.206 105.694 21.732 105.694 21.2216C105.694 20.7112 105.612 20.2356 105.45 19.7947C105.288 19.3539 105.037 18.9976 104.699 18.7259C104.361 18.4541 103.93 18.3182 103.407 18.3182C102.883 18.3182 102.452 18.4541 102.114 18.7259C101.776 18.9976 101.526 19.3539 101.363 19.7947C101.201 20.2356 101.12 20.7112 101.12 21.2216C101.12 21.732 101.201 22.206 101.363 22.6435C101.526 23.081 101.776 23.4339 102.114 23.7024C102.452 23.9709 102.883 24.1051 103.407 24.1051ZM108.658 25V17.3636H109.791V18.517H109.871C110.01 18.1392 110.262 17.8326 110.627 17.5973C110.991 17.362 111.402 17.2443 111.86 17.2443C111.946 17.2443 112.053 17.246 112.183 17.2493C112.312 17.2526 112.41 17.2576 112.476 17.2642V18.4574C112.436 18.4474 112.345 18.4325 112.203 18.4126C112.063 18.3894 111.916 18.3778 111.76 18.3778C111.389 18.3778 111.057 18.4557 110.766 18.6115C110.477 18.764 110.249 18.9761 110.08 19.2479C109.914 19.5163 109.831 19.8229 109.831 20.1676V25H108.658ZM114.961 22.2159L114.941 20.7642H115.179L118.52 17.3636H119.972L116.412 20.9631H116.313L114.961 22.2159ZM113.867 25V14.8182H115.04V25H113.867ZM118.719 25L115.736 21.2216L116.571 20.4062L120.211 25H118.719ZM126.891 19.0739L125.837 19.3722C125.771 19.1965 125.673 19.0258 125.544 18.8601C125.418 18.6911 125.246 18.5518 125.027 18.4425C124.808 18.3331 124.528 18.2784 124.187 18.2784C123.719 18.2784 123.33 18.3861 123.018 18.6016C122.71 18.8137 122.556 19.0838 122.556 19.4119C122.556 19.7036 122.662 19.9339 122.874 20.103C123.086 20.272 123.418 20.4129 123.868 20.5256L125.002 20.804C125.685 20.9697 126.193 21.2232 126.528 21.5646C126.863 21.9027 127.03 22.3385 127.03 22.8722C127.03 23.3097 126.904 23.7008 126.653 24.0455C126.404 24.3902 126.056 24.6619 125.608 24.8608C125.161 25.0597 124.641 25.1591 124.047 25.1591C123.269 25.1591 122.624 24.9901 122.113 24.652C121.603 24.3139 121.28 23.8201 121.144 23.1705L122.258 22.892C122.364 23.303 122.564 23.6113 122.859 23.8168C123.157 24.0223 123.547 24.125 124.028 24.125C124.574 24.125 125.009 24.009 125.33 23.777C125.655 23.5417 125.817 23.2599 125.817 22.9318C125.817 22.6667 125.724 22.4446 125.539 22.2656C125.353 22.0833 125.068 21.9474 124.684 21.858L123.411 21.5597C122.712 21.3939 122.198 21.1371 121.87 20.7891C121.545 20.4377 121.383 19.9986 121.383 19.4716C121.383 19.0407 121.504 18.6596 121.746 18.3281C121.991 17.9967 122.324 17.7365 122.745 17.5476C123.169 17.3587 123.65 17.2642 124.187 17.2642C124.942 17.2642 125.536 17.4299 125.966 17.7614C126.401 18.0928 126.709 18.5303 126.891 19.0739Z" fill="#565D6D"/>
<path d="M32.0714 15.5V22.5714C32.0714 22.9124 31.936 23.2394 31.6949 23.4806C31.4537 23.7217 31.1267 23.8571 30.7857 23.8571H29.5L29.5 26.4286L25.6429 23.8571H25" stroke="#565D6D" stroke-width="1.54286" stroke-miterlimit="10" stroke-linecap="square"/>
<path d="M28.2144 13.5714L19.2144 13.5714C18.8734 13.5714 18.5464 13.7069 18.3053 13.948C18.0642 14.1891 17.9287 14.5161 17.9287 14.8571V20C17.9287 20.341 18.0642 20.668 18.3053 20.9091C18.5464 21.1502 18.8734 21.2857 19.2144 21.2857H20.5001L20.5001 24.5L25.0001 21.2857L28.2144 21.2857C28.5554 21.2857 28.8824 21.1502 29.1236 20.9091C29.3647 20.668 29.5001 20.341 29.5001 20V14.8571C29.5001 14.5161 29.3647 14.1891 29.1236 13.948C28.8824 13.7069 28.5554 13.5714 28.2144 13.5714Z" stroke="#565D6D" stroke-width="1.54286" stroke-miterlimit="10" stroke-linecap="square"/>
</svg>
