<svg width="18" height="18" viewBox="0 0 18 18" fill="none" xmlns="http://www.w3.org/2000/svg">
<path d="M12.3751 16.3125C12.3751 16.4617 12.3158 16.6048 12.2103 16.7103C12.1049 16.8158 11.9618 16.875 11.8126 16.875H6.18759C6.03841 16.875 5.89533 16.8158 5.78984 16.7103C5.68436 16.6048 5.62509 16.4617 5.62509 16.3125C5.62509 16.1633 5.68436 16.0203 5.78984 15.9148C5.89533 15.8093 6.03841 15.75 6.18759 15.75L11.8126 15.75C11.9618 15.75 12.1049 15.8093 12.2103 15.9148C12.3158 16.0203 12.3751 16.1633 12.3751 16.3125ZM15.1876 7.31253C15.19 8.25024 14.9782 9.17612 14.5683 10.0195C14.1583 10.8629 13.5611 11.6014 12.8223 12.1789C12.6841 12.2848 12.572 12.4208 12.4945 12.5767C12.417 12.7326 12.3762 12.9041 12.3751 13.0782V13.5C12.3751 13.7984 12.2566 14.0845 12.0456 14.2955C11.8346 14.5065 11.5485 14.625 11.2501 14.625H6.75009C6.45172 14.625 6.16558 14.5065 5.9546 14.2955C5.74362 14.0845 5.62509 13.7984 5.62509 13.5V13.0782C5.62498 12.9062 5.58543 12.7365 5.50949 12.5822C5.43355 12.4279 5.32325 12.293 5.18704 12.188C4.45012 11.6141 3.8534 10.88 3.44203 10.0415C3.03066 9.20289 2.81541 8.28172 2.81259 7.34768C2.79431 3.99589 5.50275 1.20589 8.85103 1.12503C9.67604 1.10514 10.4967 1.2505 11.2647 1.55254C12.0327 1.85458 12.7325 2.30719 13.3229 2.88375C13.9134 3.4603 14.3825 4.14914 14.7028 4.90973C15.023 5.67031 15.1878 6.48728 15.1876 7.31253ZM14.0626 7.31253C14.0628 6.63729 13.9279 5.96883 13.6659 5.34651C13.4038 4.72419 13.02 4.16057 12.5368 3.68884C12.0537 3.21711 11.4811 2.84679 10.8527 2.59969C10.2243 2.3526 9.55279 2.23371 8.87775 2.25003C6.13556 2.31471 3.92283 4.59776 3.93759 7.33995C3.94011 8.10396 4.11639 8.8574 4.45309 9.54322C4.78979 10.229 5.27809 10.8293 5.88103 11.2985C6.15204 11.5092 6.37126 11.7791 6.52189 12.0876C6.67253 12.396 6.75059 12.7349 6.75009 13.0782V13.5H8.43759V10.3578L6.35212 8.27299C6.24658 8.16745 6.18728 8.02429 6.18728 7.87503C6.18728 7.72576 6.24658 7.5826 6.35212 7.47706C6.45767 7.37151 6.60082 7.31221 6.75009 7.31221C6.89936 7.31221 7.04251 7.37151 7.14806 7.47706L9.00009 9.32979L10.8521 7.47706C10.9044 7.4248 10.9664 7.38334 11.0347 7.35505C11.103 7.32677 11.1762 7.31221 11.2501 7.31221C11.324 7.31221 11.3972 7.32677 11.4655 7.35505C11.5338 7.38334 11.5958 7.4248 11.6481 7.47706C11.7003 7.52932 11.7418 7.59136 11.7701 7.65965C11.7983 7.72793 11.8129 7.80112 11.8129 7.87503C11.8129 7.94894 11.7983 8.02212 11.7701 8.09041C11.7418 8.15869 11.7003 8.22073 11.6481 8.27299L9.56259 10.3578V13.5H11.2501V13.0782C11.2507 12.7339 11.33 12.3943 11.482 12.0854C11.634 11.7764 11.8546 11.5063 12.1269 11.2957C12.7316 10.8231 13.2204 10.2186 13.5559 9.52823C13.8914 8.8379 14.0647 8.08005 14.0626 7.31253Z" fill="#565D6D"/>
</svg>
