<svg width="22" height="22" viewBox="0 0 22 22" fill="none" xmlns="http://www.w3.org/2000/svg">
<path d="M10.9999 12.58C11.8725 12.58 12.5799 11.8726 12.5799 11C12.5799 10.1274 11.8725 9.42001 10.9999 9.42001C10.1273 9.42001 9.41992 10.1274 9.41992 11C9.41992 11.8726 10.1273 12.58 10.9999 12.58Z" stroke="#9095A1" stroke-width="1.896" stroke-miterlimit="10" stroke-linecap="square"/>
<path d="M3.9301 12.58C4.80271 12.58 5.5101 11.8726 5.5101 11C5.5101 10.1274 4.80271 9.42001 3.9301 9.42001C3.05749 9.42001 2.3501 10.1274 2.3501 11C2.3501 11.8726 3.05749 12.58 3.9301 12.58Z" stroke="#9095A1" stroke-width="1.896" stroke-miterlimit="10" stroke-linecap="square"/>
<path d="M18.0702 12.58C18.9428 12.58 19.6502 11.8726 19.6502 11C19.6502 10.1274 18.9428 9.42001 18.0702 9.42001C17.1976 9.42001 16.4902 10.1274 16.4902 11C16.4902 11.8726 17.1976 12.58 18.0702 12.58Z" stroke="#9095A1" stroke-width="1.896" stroke-miterlimit="10" stroke-linecap="square"/>
</svg>
