<svg viewBox = "0 0 37.59 37.59" width="37.59" height="37.59" xmlns="http://www.w3.org/2000/svg"><g transform="matrix(1 0 0 1 18.8 18.8)" id="OBJECTS"  ><path style="stroke: none; stroke-width: 1; stroke-dasharray: none; stroke-linecap: butt; stroke-dashoffset: 0; stroke-linejoin: miter; stroke-miterlimit: 4; fill: rgb(37,31,31); fill-rule: nonzero; opacity: 1;"  transform=" translate(-18.8, -18.8)" d="M 36.38 30.52 L 24.660000000000004 18.799999999999997 L 36.38 7.0799999999999965 C 38 5.459999999999996 38 2.8399999999999963 36.38 1.2199999999999962 C 34.760000000000005 -0.4000000000000039 32.14 -0.4000000000000039 30.520000000000003 1.2199999999999962 L 18.800000000000004 12.939999999999998 L 7.07 1.21 C 5.45 -0.4 2.83 -0.4 1.21 1.21 C -0.4 2.83 -0.4 5.45 1.21 7.07 L 12.93 18.79 L 1.21 30.52 C -0.41000000000000014 32.14 -0.41000000000000014 34.76 1.21 36.38 C 2.83 38 5.45 38 7.07 36.38 L 18.79 24.660000000000004 L 30.509999999999998 36.38 C 32.129999999999995 38 34.75 38 36.37 36.38 C 37.989999999999995 34.760000000000005 37.989999999999995 32.14 36.37 30.520000000000003 Z" stroke-linecap="round" /></g></svg>