<svg width="36" height="36" viewBox="0 0 36 36" fill="none" xmlns="http://www.w3.org/2000/svg">
<path d="M18.0001 30.6C18.4972 30.6 18.9001 30.1971 18.9001 29.7C18.9001 29.203 18.4972 28.8 18.0001 28.8C17.503 28.8 17.1001 29.203 17.1001 29.7C17.1001 30.1971 17.503 30.6 18.0001 30.6Z" fill="#262020"/>
<path d="M18.0001 30.6C18.4972 30.6 18.9001 30.1971 18.9001 29.7C18.9001 29.203 18.4972 28.8 18.0001 28.8C17.503 28.8 17.1001 29.203 17.1001 29.7C17.1001 30.1971 17.503 30.6 18.0001 30.6Z" stroke="#262020" stroke-width="2.16" stroke-miterlimit="10" stroke-linecap="square"/>
<path d="M11.4033 6.48C13.7156 5.24665 16.2833 4.56874 18.903 4.5C23.853 4.5 26.103 7.2 26.103 11.0997C26.103 17.1 18.003 18 18.003 24.3" stroke="#262020" stroke-width="2.16" stroke-miterlimit="10" stroke-linecap="round"/>
</svg>
