<svg width="24" height="24" viewBox="0 0 24 24" fill="none" xmlns="http://www.w3.org/2000/svg">
<path d="M21.6939 4.15694C21.6939 4.15694 21.6939 4.16631 21.6939 4.171L16.2376 22.1654C16.155 22.4576 15.985 22.7177 15.7504 22.9105C15.5158 23.1034 15.2278 23.2199 14.9251 23.2444C14.882 23.2482 14.8389 23.2501 14.7957 23.2501C14.512 23.2509 14.234 23.1706 13.9945 23.0187C13.7549 22.8667 13.5639 22.6493 13.4439 22.3923L10.0961 15.3244C10.063 15.2545 10.0524 15.1761 10.0656 15.0999C10.0789 15.0237 10.1154 14.9535 10.1701 14.8988L15.5382 9.52975C15.673 9.38795 15.747 9.19914 15.7444 9.00357C15.7419 8.808 15.6631 8.62114 15.5248 8.48284C15.3865 8.34454 15.1997 8.26574 15.0041 8.26323C14.8085 8.26073 14.6197 8.33472 14.4779 8.46944L9.10137 13.8376C9.04672 13.8923 8.97649 13.9288 8.90029 13.942C8.82409 13.9553 8.74566 13.9447 8.67574 13.9116L1.64449 10.5807C1.36835 10.4542 1.13595 10.2486 0.97674 9.98988C0.817528 9.7312 0.738657 9.43109 0.750116 9.12756C0.765386 8.81559 0.878328 8.51632 1.07297 8.27204C1.26762 8.02777 1.53412 7.85085 1.8348 7.76631L19.8292 2.31006H19.8432C20.0994 2.23808 20.3702 2.23556 20.6277 2.30275C20.8852 2.36994 21.1202 2.50443 21.3085 2.69242C21.4969 2.8804 21.6319 3.11512 21.6996 3.37248C21.7673 3.62984 21.7653 3.90059 21.6939 4.15694Z" fill="#262020"/>
</svg>
