<svg width="22" height="22" viewBox="0 0 22 22" fill="none" xmlns="http://www.w3.org/2000/svg">
<path d="M17.857 11C17.856 10.5062 17.8019 10.0139 17.6958 9.5317L20.0221 7.77027L18.3078 4.80113L15.6138 5.9377C14.8843 5.26887 14.0184 4.76618 13.0758 4.46427L12.7141 1.57141L9.28554 1.57141L8.92383 4.46427C7.98126 4.76618 7.11537 5.26887 6.38583 5.9377L3.69182 4.80113L1.97754 7.77027L4.30383 9.5317C4.08902 10.4988 4.08902 11.5012 4.30383 12.4683L1.97754 14.2297L3.69182 17.1988L6.38583 16.0623C7.11537 16.7311 7.98126 17.2338 8.92383 17.5357L9.28554 20.4286H12.7141L13.0758 17.5357C14.0184 17.2338 14.8843 16.7311 15.6138 16.0623L18.3078 17.1988L20.0221 14.2297L17.6958 12.4683C17.8019 11.986 17.856 11.4938 17.857 11Z" stroke="#565D6D" stroke-width="2.05714" stroke-miterlimit="10" stroke-linecap="square"/>
</svg>
