<svg width="20" height="20" viewBox="0 0 20 20" fill="none" xmlns="http://www.w3.org/2000/svg">
<path d="M14.9921 16.0679C14.8957 14.3622 13.9228 13.8208 12.4999 13.3465C11.4128 12.9843 11.1135 11.8429 11.0314 11.2372" stroke="#565D6D" stroke-width="1.71429" stroke-miterlimit="10"/>
<path d="M8.9679 11.2365C8.88718 11.8393 8.59361 12.9822 7.50004 13.3465C6.07718 13.8207 5.1029 14.3607 5.00647 16.0665" stroke="#565D6D" stroke-width="1.71429" stroke-miterlimit="10"/>
<path d="M9.99997 11.4286C8.42211 11.4286 7.14282 10.1493 7.14282 8.57143V7.85714C7.14282 6.27929 8.42211 5 9.99997 5C11.5778 5 12.8571 6.27929 12.8571 7.85714V8.57143C12.8571 10.1493 11.5778 11.4286 9.99997 11.4286Z" stroke="#565D6D" stroke-width="1.71429" stroke-miterlimit="10" stroke-linecap="square"/>
<path d="M9.99997 17.8571C14.3393 17.8571 17.8571 14.3393 17.8571 9.99997C17.8571 5.66058 14.3393 2.14282 9.99997 2.14282C5.66058 2.14282 2.14282 5.66058 2.14282 9.99997C2.14282 14.3393 5.66058 17.8571 9.99997 17.8571Z" stroke="#565D6D" stroke-width="1.71429" stroke-miterlimit="10" stroke-linecap="square"/>
</svg>
